<svg xmlns="http://www.w3.org/2000/svg" fill="none" viewBox="0 0 154 16" class="w-auto h-5"><path fill="#161616" d="M139.991 2.133a.8.8 0 1 0 0-1.6.8.8 0 0 0 0 1.6M143.724 2.134a.8.8 0 1 0 0-1.6.8.8 0 0 0 0 1.6M41.232 3.2H16.309c-1.162 0-2.15.93-2.15 2.094V6.4H38.14v.872c0 1.367-.435 2.24-1.249 3.17l-4.355 4.306c-.93.815-1.801 1.251-3.166 1.251H13.748v-3.2h18.758c1.161 0 2.149-.93 2.149-2.094V9.599h-23.98v-.872c0-1.367.436-2.24 1.25-3.171l4.355-4.305C17.21.436 18.08 0 19.445 0h25.02l-3.234 3.2M61.584 3.2h-12.88c-1.16 0-2.148.93-2.148 2.094V16H43.07V8.726c0-1.367.435-2.24 1.248-3.171l4.356-4.305C49.605.436 50.477 0 51.842 0h1.766z"></path><path fill="#161616" d="M52.542 0h5.935c1.364 0 2.236.436 3.165 1.251l4.356 4.305c.813.93 1.249 1.803 1.249 3.171V16h-3.485V5.294c0-1.163-.988-2.094-2.15-2.094H48.733zM93.994 12.8h14.995c1.162 0 2.149-.932 2.149-2.095V3.2H91.767c-1.162 0-2.15.93-2.15 2.094V12.8h5.945l3.274 3.2H86.131V8.726c0-1.367.436-2.24 1.25-3.171l4.355-4.305C92.667.436 93.538 0 94.902 0h19.72v7.273c0 1.367-.435 2.24-1.249 3.171l-4.355 4.305c-.929.815-1.801 1.251-3.166 1.251h-8.827M125.158 14.75l-4.355-4.306c-.814-.93-1.249-1.803-1.249-3.171V7.07h3.485v3.636c0 1.164.987 2.094 2.149 2.094h10.736V16h-7.6c-1.365 0-2.236-.436-3.166-1.25"></path><path fill="#161616" d="m69.94 2.18-4.321 4.251.543.554 4.32-4.25zM126.659.004h-15.134v.777h15.134zM51.715.003H40.333V.78h11.382zM91.27 15.22H79.887v.776H91.27zM146.72 6.4h6.337l-8.436 8.348c-.929.815-1.801 1.25-3.165 1.25h-13.137V12.8h16.274c1.161 0 2.149-.93 2.149-2.094V9.599l-.021-3.2zM6.317 9.6v1.104c0 1.164.987 2.095 2.149 2.095H23.4v3.2H11.603c-1.365 0-2.237-.436-3.166-1.251L0 6.399h6.337z"></path><path fill="#161616" d="m67.771 4.307 3.094-3.056C71.735.379 72.665 0 74.029 0h7.153v15.999h-3.486v-12.8h-6.804c-.598 0-1.151.248-1.545.647-.371.376-1.148 1.128-1.148 1.128l-.429-.667zM131.308 0l-10.425 10.445h-4.929L126.38 0z"></path></svg>
